<mxfile host="65bd71144e">
    <diagram id="ApAg7omOQaHgm6eapS9v" name="Page-1">
        <mxGraphModel dx="768" dy="422" grid="1" gridSize="10" guides="1" tooltips="1" connect="1" arrows="1" fold="1" page="1" pageScale="1" pageWidth="850" pageHeight="1100" math="0" shadow="0">
            <root>
                <mxCell id="0"/>
                <mxCell id="1" parent="0"/>
                <mxCell id="2" value="" style="rounded=0;whiteSpace=wrap;html=1;fillColor=#b0e3e6;strokeColor=#0e8088;" vertex="1" parent="1">
                    <mxGeometry x="320" y="40" width="410" height="290" as="geometry"/>
                </mxCell>
                <mxCell id="3" value="A" style="text;html=1;align=center;verticalAlign=middle;whiteSpace=wrap;rounded=0;" vertex="1" parent="1">
                    <mxGeometry x="320" y="40" width="60" height="30" as="geometry"/>
                </mxCell>
                <mxCell id="4" value="" style="rounded=0;whiteSpace=wrap;html=1;fillColor=#fad7ac;strokeColor=#b46504;" vertex="1" parent="1">
                    <mxGeometry x="400" y="100" width="240" height="170" as="geometry"/>
                </mxCell>
                <mxCell id="5" value="B" style="text;html=1;align=center;verticalAlign=middle;whiteSpace=wrap;rounded=0;" vertex="1" parent="1">
                    <mxGeometry x="400" y="100" width="60" height="30" as="geometry"/>
                </mxCell>
                <mxCell id="7" value="" style="rounded=0;whiteSpace=wrap;html=1;fillColor=#d0cee2;strokeColor=#56517e;" vertex="1" parent="1">
                    <mxGeometry x="442.5" y="150" width="155" height="90" as="geometry"/>
                </mxCell>
                <mxCell id="8" value="C" style="text;html=1;align=center;verticalAlign=middle;whiteSpace=wrap;rounded=0;" vertex="1" parent="1">
                    <mxGeometry x="460" y="160" width="30" height="20" as="geometry"/>
                </mxCell>
                <mxCell id="11" value="D" style="rounded=0;whiteSpace=wrap;html=1;" vertex="1" parent="1">
                    <mxGeometry x="488.75" y="180" width="72.5" height="35" as="geometry"/>
                </mxCell>
                <mxCell id="12" value="Ahmed" style="shape=umlActor;verticalLabelPosition=bottom;verticalAlign=top;html=1;outlineConnect=0;" vertex="1" parent="1">
                    <mxGeometry x="140" y="410" width="30" height="60" as="geometry"/>
                </mxCell>
                <mxCell id="13" value="Actor" style="shape=umlActor;verticalLabelPosition=bottom;verticalAlign=top;html=1;outlineConnect=0;" vertex="1" parent="1">
                    <mxGeometry x="250" y="420" width="20" height="40" as="geometry"/>
                </mxCell>
                <mxCell id="14" value="Actor" style="shape=umlActor;verticalLabelPosition=bottom;verticalAlign=top;html=1;outlineConnect=0;" vertex="1" parent="1">
                    <mxGeometry x="250" y="420" width="20" height="40" as="geometry"/>
                </mxCell>
                <mxCell id="15" value="Actor" style="shape=umlActor;verticalLabelPosition=bottom;verticalAlign=top;html=1;outlineConnect=0;" vertex="1" parent="1">
                    <mxGeometry x="290" y="420" width="20" height="40" as="geometry"/>
                </mxCell>
                <mxCell id="18" value="Actor" style="shape=umlActor;verticalLabelPosition=bottom;verticalAlign=top;html=1;outlineConnect=0;" vertex="1" parent="1">
                    <mxGeometry x="330" y="420" width="20" height="40" as="geometry"/>
                </mxCell>
                <mxCell id="19" value="Actor" style="shape=umlActor;verticalLabelPosition=bottom;verticalAlign=top;html=1;outlineConnect=0;" vertex="1" parent="1">
                    <mxGeometry x="370" y="420" width="20" height="40" as="geometry"/>
                </mxCell>
                <mxCell id="25" value="" style="html=1;whiteSpace=wrap;shape=isoCube2;backgroundOutline=1;isoAngle=15;" vertex="1" parent="1">
                    <mxGeometry x="160" y="540" width="90" height="100" as="geometry"/>
                </mxCell>
                <mxCell id="47" value="" style="shape=stencil(lVnbkhwnDP2aeVUBAgTPjvMfrvI6O5XNrmu9Sey/j6gp2EYwp7NvM91HNBJHVy786cfjl+8Pl+B+vL2+/Pnw7/Xr2+OFf7uEcH1+fHi9vumvC3++8KdvL68Pf7y+/P389fb/+5eGbL/+evmnrfDzJseeQm5Swf26PXFUbg9+v+Gfrs8HfCgkyeITwGdiZ/CVAZ4phgnvyXuAd5SKwcd4H++FcjX4gvCJ4owPFArAM0kw+CwAr8vFCc/kKsCrOdjgE8BXEpngkTzYfqEaDbw4BPfz6okSgIuFKzkAd8bbDhdoev22n+CFIlg9dh52uJoKEDNSnv2knQQgTiQ2PA5UAZGZ6qysjyd4nm2pzPaACIFk9kNfITGVlzNenyB9Pcnsh81iYP+esllfyCFHoWT8SvcPzstbv2XVCONne3KEgU3xMx9Y+gr/Dx8dOWwf47gB+lawcTAmCgHxM8z2jIUcdEYTSJIGcrC+dzZQpREa70XOOMeelMmDVOR1S7PDp0IBHVmlauKPw8mFO2WGgGYLEILUSoZ1mTtv9wK6pZkWOUE3ZrZxJasZkID0Yx0CBTpO9EvYdT3n7wUS1dmVRUMdCtSas2elJRGDk07qivM5iECzKhHECFSK4KTzyOojefgeAPcCyfpnCT137gWKddASKQIriV+2lOAXZMloRagAakixPl0qFRDDykhhI2f6zt+9QO5EGAKRHCooqi1AqhZgQKCGnuSHQIbU0A0Y8lWBdUKtNnPqEwYHV4cRDwIoNehra6VKCeUS57oVDxIZ78lWOxWGjffXBwFEprblRQnEjWbFuAjgLzhT8rzbYS9RqIQP7an0muUogL9g0nozEwg0KsCLmQR/gZeDgBV/6WHlSD/EDVU6LQInZl0IziAy6Wu/nAMjK9WN0oy8ehSDRwHMvpUaqHFsRFislFBBvHdSHGnqQiY5UWLZE+re2waWL6Cc0oyyehB2Um/6pHMnrYuZUPnQ+LrQD5WiHxdg22xojkB1n6ZBy9fc6bLPc6Wf0yHPobihud/6XIROqvVLMWYN0CO0pLJhwFEAWUjYpgjVCjXoWkf6OeJrfYC8OottCbRmQgVK1uQ+61AYRiat581IoozGdF9Zig00MiLJXmAZCKmhEflitUprdQzr72hPWk8GFSjaeZqZn9aaHnyBk419WXMxMOt7rz0EBJbTYUkprcBGAsnmUe20kFm1QXamNQuQ3r5Ys2q3iPKoH8OvQz+KdPChz+IOHS8qFEsfVQ58hDOE1Huegcczq2A1jgWemrf+rK0gSuvKu3k/baYBzmxJoCczkwV/MpMZqx1nPsA+ip9d+WSm5Gzr3WZWUF9TJgWBMxm1p5lNj+bmDl6WmZ5DjLb8bDNDyAfTpreZJPLJZYYZ8eVD73EOM1WMtzNVD4frbPmM1WWbCkqf5d+bCM+r5z6OuuO8ZgCLu/+8juKRqnowxrWg5xY7i+CeaPf1kJ3MBaiqHkswxIe1jQ92SuDx+tFWKh7PjmUpYuGtSXNce8klKM6ydXQHL0La4UaDh3PLzSUdipu7S0BUsis+WX1P1jfjOAfjmuKrxSN9ecntDg9Rl8sNBwvXhrf2QQXWDo8qh91+EsYv+qK7nJ09UUW5Oy/UnOz4gPLoRy+dz/H64/2G+9v16el2QX58b2/E9dHtNp0//wc=);lineShape=1;strokeColor=default;" vertex="1" parent="1">
                    <mxGeometry x="123.0949408065112" y="461.52719757408227" width="32.75042360584967" height="76.9605783323039" as="geometry"/>
                </mxCell>
                <mxCell id="48" value="" style="shape=stencil(lVfbbtswDP0avxKSKFHSc9f9R4GmS7AsKdJsa/9+NDwlFm2fokAebOccSSQPLxr44W3/9Lobgnu7Xs4/d38Pz9f9wN+GEA6n/e5yuOrTwI8DP7ycL7sfl/Pv0/P0/vo0IsenX+c/4wrvEy8LpTKygvuYvkQa3/T3fcIfD6c5vpKTDu8jeUAogSJ3hMBUPSBkCrEjcKQCdqiepD9SzFQTIAi5/kipUmBAqNYGUQLYwTtHznWMnCkDq2tqTmmEol8KdFPt3VQDhQoilyj3R1I//Pf0KkE85d6vtVCSbcLodkOolIBfmYmLJWRgg4o19eK7O3r9SBTzYgNgcyBx1uQKTPbkTRA0zEAYzmp7jAHQ9kJGNTYXbODjQhQV+MdT6lWnyRSBvUze4B0xwCdbLYr6H5UX8tniBeU+BWfP41C8XKsMM0IFivNhEbFADDSthNrXiqr1DpgwEswOqalw80gma3JzwzrBkwuLREYFcrGB5jHYILdiOMPXjFThF/gCgqCqqxYfwPqq6mzt9WB9t6gS8kkW26xMLS+2st74n1uebpzfGXs9bJmhVdmZqAX0jkjcr69ZVgBeWk2Y4RMs01/Dc2gZMiMwyJmo8ektLoUyUlxpArsRMhUQ4uxtjMutf67349gkeSN4WIrGBt4brXsmoAo9gBlbJMDmV1TXfZ4lByuLjggmEbgQA+HpGFTMcCdwzBEh3xO8wNQUJultkFactvAmF1Irflv43AuD29SzjteJoo9agC6VZEccj1NHSPoO6/BEVMglg0eTqUZssT7SkGrSdFjcYHNo/f2Oj0AQOdpa55tBWxI1/di39rmO11m/9z+TQ+f56n3oU7w+3C9fL4fjcbq7zf+3lzX9NF30+PEf);lineShape=1;strokeColor=default;" vertex="1" parent="1">
                    <mxGeometry x="152.32094852176488" y="534.8278119133614" width="5.51895849445795" height="6.908923670743791" as="geometry"/>
                </mxCell>
                <mxCell id="49" value="" style="shape=stencil(lVnLchQxDPyavaosy89zgP+gioRsERIqhNffI7PlWVue6S1uYWnNWJbUamlOcvf98eO3+5N3399eX77c/zp/ens8ybuT9+fnx/vX85v+dZL3J7l7eHm9//z68uP50+Xf3z42ZPvr68vP9oTfF7taKOVm5d2fyy9Mrvz74cMF/3R+HvGJ4ox3lAXghbK3+HyML5VCMudh8PwSiO35Kx/jcyEuE17IgfNkIeYJH0gAPlXiOOEjFQ/wiWTGZxKED5RnfCUP4pWE4uwvMyVk4KmE2SD0Ix4ZRJkNMnkQMjVIs4HmhHfQB56P5Devji7JzUmktxrRG6KNmjAV5LRGdX6DJAroSJFSnfOI+yGPfKgm8SIFkNntluYjhYojvVXilqpCFdxS1Npxs0GGxRaDzaXElIHTkXuxbAbY6aD0Zd6gv4DAXS9xqzemWIGBJ5kDlwNMb1EGm4+UNTUAZUgmN9eDkpQEYBDsLeVKFb3B2+QrDK9VHKU50sXDXPKls9BmIFSQgfKeMdCEB9d65d3NQGsQOO29ZdaSYKtSFirmDRkGjpV650iX0rvFvkHpmTMYJMD2vHRb7Y8JvSFSnFOjKrcig+Va1aCAW2KlmTmXKuNbYqswqu98vm/grGRQA6gxyM/Ep6IDcbGSlvEAV7SmzRzmGskhnqTIFl8A6y0sqSIrgfNodzP43EXTfmJbjqy1l/cB3kgwxSPW9laCKb4AStUeUC0e0RfbFGXnYAAc1cXhChLCUYwLHj7fL/gMn++WC0Vlv3k34FGAXZfsA96DADiS5fmoIp0VbIp3iCNsQ9Mpo4Lz85JwigdNnHtrGfHAX295up0fNaelgPU+Qby0wJb4Cny+ZcTaM/DoPMv5MyB1b5txK0h4n3WJL75/cz+3CpJ3EhQFzO1cEBIHruul0WFYYLwUAJI3ewUZQQDcwtAVKrr/xXMXAUMHYMzo5vwJEoQsBBdhQoc+XQ0dNYAEir2fDB0bqfa8xMvDhC5WgjfJARWELWDuTzjSNDZgrjfxfQO/3OgNXSbWhdvKLxiNXygi0k2266kBmkh1rDc6RfVxROpVu9Ys5FSBQ57mvosZDDxSHkLOOK3XgDS+KjfjdMDUm7pyGAabgHyoi8bXQQTNi7yMTty92jcQOzrp+JfQ+BftFKEDpgNOy6KQdYRlVP+u66XNQKCkC2K3GzqGI8YLSgFzLumgj0bYqPU1O50irLgonRKHZQUqoJjsrBVzX87tG1QrlPWdSFi3A8wVFypefInNpaDEjbdMph7aWgotvkJXQsPiC5FAW0DO9aAJX5GB7xU8Lu9u3NKcfEoLSF4nZ9PbYzJWgzIbtBUn2idy/+9hiQrXtNwF17CmhU7LMnRBSdvWiXNmpD4k7eMXCoiQxfIyBAoVtIfPdg/noWJQ1jWlwLAzaLc0M5frzWhfAYiVnKrJED6TsMWDjKjLVtB1TXaETwsexKsJXmfwSKE2Qe0tHn33qTYfHOw5w0RwNUBc115gA4YkXnPYBgyNCG1kMp8pbgXMyCNMjFfFPuBBF28jtzd4tDvUEddyEJT8//1h7yZe/7h+RXw4Pz1dPkKO/2+/OupPly+W8v4v);lineShape=1;strokeColor=default;" vertex="1" parent="1">
                    <mxGeometry x="215.89447740660978" y="455.5969127063047" width="29.14232716498277" height="74.13935400916216" as="geometry"/>
                </mxCell>
                <mxCell id="50" value="" style="shape=stencil(lVfLbhsxDPwaXwlJlEjpnKb/ESBObdS1Ayd9/X25NeRY3N0xcluvNSuRMxxSG3542z29bjcpvL2fT9+3v/fP77sNf9mktD/utuf9uz1t+HHDDy+n8/bb+fTz+Hz5/fo0rZyefpx+TV/4c8EJcZtAKfy9vEgk+f+Lr5flh/3xZnkMxHVYHxOVBACZUh43sC0RQCnoAMiZQgWASi0MALFD8jogBcoyAJQpgh0sJzweqUaKIIak/e8rIBPLOoALhegBLa4DppwED9C2DiiRqgMEqiCGItRclpRSWAdIojgyrde8LQLUeBi1JEoKiNNGZdxBMlVAXBPKPAIicQEApRI8oIAjtUp5rB9LAxJfa5Rc0EyCYmhUR2lI6VGtlGjw2rC8ZsDctEUZAa3bwhqAnTasIADVlqYypsm0UVDUSjJWkNVoRswJlVlRK6igVjzVBmAEyFTUxwABTNUdKXQu1wDZ6bv2IlwDOB5E7gHEFYQ5D5Kr2ffIg8kVVpB9zx3JfAEFLd3db0oO6dukEYsHQLXW7u43Rwq4HkLxQaMGYQAZpTEZEzBXAzQHEFLQdyfATBp3AL4eAgnioVKdyTsiLemsQTAlRJxpc1bTgoj7LMBaWhvlbT1LANMWYp119gSIs3Kpo5aq9Na93EZnxLVICtJasifOSgrFkFu33iugdj9fBrA/0k3LWB5PzO9HrzR5KfB7ziTFAzJIU2qeagtCQRDJfMYBFM+Vzcu14Y4SZ8NDLdBcbdTNY9BaettbBrAfdc2YUFpj9HNl1u48ywXhpcEJJil7H/uYlRfXB9JRF3Y/QBEHSk6qlIAqQu9N14TCaOdzD7w4BJ8cqzx4GDd8Xtlb5sq3NRvA0cWqE9+XBzjZJm8SllmgZe7F97Ec1bs1ff/1CIy9+FADvEMWfxOJfYZettzP3VDvLreHj8vwy/5wuNylb//3l2d7dbl48+M/);lineShape=1;strokeColor=default;" vertex="1" parent="1">
                    <mxGeometry x="210.10995839327336" y="524.3471172364581" width="10.324976289753067" height="5.54799225498928" as="geometry"/>
                </mxCell>
                <mxCell id="51" value="" style="shape=stencil(lVrLchw3DPyavaIIgs+z4/yHqyxHqiiSS1YS+++DqS2Ols2ZVnRby40ZEq9uYPdin37cf/l+d4nhx+vL8593/z58fb2/2G+XGB+e7u9eHl7908U+X+zTt+eXuz9env9++nr99/cvG3L79NfzP9sTfl7tSpVom1UMv65/CVKuf/j9in98eJrxrQI+JoJvUjPgQyD4LjUivp/ja5AaAJ8ywauUNuGVnqdGfL4/gOFN2nz+KBoJPosa4AvxZy1Sy4Q3iey+TUoGfG/n+Bbw+Uk6eX6L0ubzZ+lK8ElKn/BFGolvKyO9Br5KrQTv+Tmfv40XHuO7pPn8noDE/93TZT6PusdIwfSICa0qnWRQTyMhdwOTQK7cs8TZpZrEyJ17kaSzQZFAgtar5NlJWmnUepMMXurcoEucL+111kieugHU5ZbYLA595OVukKmBhoCBiO/cuo8H7gZ9dL8zA2hG5t2lcDdBNZvkdwIxZ59l2t891HikShuAJ1OGhhFGSZ2lK7g1mRgruSh9TqZUpLB0DWLQkwJtwt404nzpbKNtnnWxAG8oo++fttX50rkPvx337TpOvPfJKIERieGli3cB8gZnWpsDVwqlnuKBm73k5M56ffFLzwbO1ox83IlxPpLfKpA4ZEV2e+PTQ4O0yB13dCR38NzUOXDV/Ua6sfVRXzsBqRjp91bwDs0Gxxwb2OiMu0Ea2XVsoKIzQbyx6qGBc6bNybfRKvGSt9IEb3AvMYOIMsOLlukql3VwJGdidmldhID3Edb5NCMFde+tJFs1opRx6s6UUURnCuq7345rGhufN1ta0qJzYng3V3ID12IV8YzgTBJ4qNEm5iGFmDlDUjxk0Q0HnxhY/qBB/OCJMGJcxwRUh5tO4fiA+EIiFoZOu8HzCISCeDYe+X0z4lnGuT/rgqf+xwzqg3pP8HnxZ6T+LMt9mbZYpp3NP4RlA053m/85fjk/49ij51fq//X8jVfkgu/0PCD8Nzz1P8T3fxTkeiBCr0cJyjTIUQEwoXZUYJXj1wKm910bBKOAowbEZrujBmf0/B/D2+KfRmVpGjLghmJYQealALjWr6i2nFIrmxuHjrnhbJY/TvIGnGp0HtKEc+Y2v5CIuVDJGQ2Y6NW9Qm6kEBO9Lraw6waqMD0KAeRco1uXTaksgjEylRzG83aDzDWsDd66Eb3K3lBQ6bcomUTahTuUQgv00sk17Bzp2sYy7Nig4O60Fjpm5n1y2A0SpfucMflqpO3FRzRYBfmIxgjQh8qyDIFUkzYUsT5mKqvoONZju4ENFj1bicIAVZSSsscVdLIP40qSzweyNAfOJ9XEDAoq62y0Htqyzkqd97GIKwvPLqa8vM/BAJXeXSu2ZbET2RvKkNI3qyMmXnrFZmw+D7FN0LrN8siwNyzJ57Mwm+mc/SA1Iuf/dSO39UK2nPI3zF7a9pB8hQdudVIN/NIJ7hC5gccB7rDLrLNIQ2poo4PmRspgUMa66ixbobc6r7INRF/4QY22+62AYEUdaU2/LShuFvmRuLUtgdPADer6XQRb0zhlQv006lRnTOgZdfS1Y3wc1bg3Vrrf8L5q0PXoctrpMs4yY19InDV6ICujleNkWQ3wrL1sK1T4ioAuB+qu097wbPNdFcWzDkFwjA+4kVKaoaUv+xPKtE7NQGtKZWFZ+rUOcXyGX747Zf5xfMbvZtmywvFY8+/hYUWuXOtUVIRKV7+OV3w+o2THw3CqdBe94dH/NL51+SaRf/dexyg38IEuu9bzB7rs2vyTEM/P89HfJryD9w9vP4T49vD4eP0dxe3/4w8n/E/XH13Y5/8A);lineShape=1;strokeColor=default;" vertex="1" parent="1">
                    <mxGeometry x="257.4937800239278" y="460.1564196323959" width="63.65519273215633" height="74.38847729425885" as="geometry"/>
                </mxCell>
                <mxCell id="52" value="" style="shape=stencil(lVfZbtswEPwavy5ILpfHc5r+R4A4tVHXDhz3+vuuKtA2l9IYeXOUGYkze3LDTx+7l/ftJriPy/n0fft7/3rZbfjLJoT9cbc97y/6a8PPG356O523386nn8fX+e/3lwk5/fpx+jW94c/MS5WqTKzg/s5PPEn4/+DrjD/sj3f4HClwh08kDPEl9O+PxBkQHInrCIEpu3VCChR6BcztjIsEcVR7CVFFpXUCV4o9QYRKWSeEQin1JiXiuk7wlTh2hJzgkbxGyXeEEtuTZZfsiaqDJ1KC709UQ3vFIiEW4t6kysQokzRK3hISyIyqHg6EggiZYu0JkRzIjFpIxBIE5F6tLZevBKEARCuhGIIaDQjeOXJ9Pagsj8+UTSAKORA5JXhvCRV9oZA3vlaSCAPhsiXAL8hg07VPLRMi5WAJCZSopo51qcJAKMHGobSiXSZovZgvaD4i0SMhUQQ1PR3JiBaKD0QP+Y166/TvgeBRHITqWKOgz0zJPBAqsrW0Ars7EiOXNK5sCRXXgxWt6QhcWqrRRBl1Jm0Dph3n9tHVRmMIOmOwTTLkNyPVmpzJEgryVSfUWKO4f4fyGYJOCDOD7pxeG0J2alUY66AFM4jIQHVu29F9HEDgxsyQtq6s4H2PLwm+Xyj3govDucp2xGVtO6DvhWBbsS5cEW1LbMe0eNgCdPuSXoMuXBW0MYktba4rYm1xX15+vN1+1OcMFgFd16JpAdDVxG2vuGqGu49aKL0C9QAoVjybHZfyA7xxCI7PdM2BGx61edVr0tS3FXkNn/vSd+1asIyPlLzBo0tDEpJk8A6knMZ3xKP4Zls1ro2tZXxpc/iGj0iv9mZn8Gg/+uyt7TFef9yuiG/7w2G+Yd7/314p9dF8HeXnfw==);lineShape=1;strokeColor=default;" vertex="1" parent="1">
                    <mxGeometry x="251.9401145067577" y="530.1327829893779" width="7.108808670611129" height="8.652333185801862" as="geometry"/>
                </mxCell>
                <mxCell id="53" value="" style="shape=stencil(lVrZchw3DPyafUXxPp4d5z9cZTnaiiK5ZDmJ/95gbZEimzMt6W21aswQQOPkXvynH/dfvt9dnPnx8vz0991/168v9xf/x8W56+P93fP1RT9d/OeL//Tt6fnur+enn49fb39//9KQ7dM/T/+2J/x/k8tFqmlSzvy6fWPE3L7484Z/uD7O+ColfQBfjNSAeEvwTpxFvCN4L8UB3maCj5IQHyLBZwke8IU9v4pb7WMl1HN8tWLKglcDkOdXh/p6scSeNUhEfC0En8TGBR+keoLPElf7JOrfWiSt9sni2Xlqd0/H126wMzzwzaqFiUGtGQQeEl48U7lKXk1qo2TCIRWwwIkinpFC/72+QVlkEvWCz6uA73F65ma/Kq1+owJR7MpTr3ZjVtID1FXAS2RvcOhpn/s7jwU0tQBVjWTyhhabq5VC6IY+Df6VTCFLJkprdgHHRftWusurWaMeiQho/q3whiyJCSTJq6eT2o0ERHZo1qQ5hLA1aQlZU7Z+4wIRGM8bOcBKIWbVE7s1yeRIs15MmFVz7nQ8FnCY9rRwWVLXQpG4UqOoDkTpEDHitHQ5onRwaKWi1GBv0Eq2Kq10ZH7wpZ94EqgkHjQgA+iQaHXzUcpKDQ0pw46k1SmhQCZ+8LaH/BAoEogOWj8i6FCpH1qBggrEWxgXe/mYBDJJZJqr/aqDdgWJ6WC3N2jyJEeyFbsqTc8st9rhpkmgkhpnR5swBDTKWd31WHZbiSFc0jruHAoUYqXN0a3oEZ1Lr2cTvhKjpl4KBn4w5TjHYDwrnpWrIGkNZ20LLHm+l5wRHxmxsfQonkW/3Txce0o7xJsehxOeFR6DpJ5asxMBFz4oAEm+nYh4wPTOccYTRoxRZcKzurZ1nq21JNlx5J0Jnzh+05e1YKYX1QnP0rvpATvj6Xlc2fCEcabH67ufH9KGJxFvcHZp9qHPjxsfEvUvRvwYHd79/EL5Fne+UX/hLPUW/7EuKZ4+H/rrdwTk5mA2nY6ebMbzAAubgUgKPQxImrJ2fOL4nXBUX7MRKFJC2D0AqL4fw2uzBQmiUIK6rt2EZwE8JsQJz+beIAECJveieVKCsSTlnpJOSjyeJ9HtT+7smvCBDclbHxf7Ou6sB8KMHmnPYR22+NqWZdYphq0rCJ2ExwLDIlOnGFjjV7cgcPRIyjoLOti+5Dnrp5HWlnZOygt8g6FTuDrarkoXXjmap1fm6ZjCmj+da3D6y1RpnZzAcSrgSLHR2SzB9Jdod6DTn9umP7YC0vkS3xBpeglbg1ACnZx0RvZgJU8DVKdwqCBtA8MEtlWczvlsiogW91659pXnsUCUDAKZBlDcVkCZx3QKuJPOlvohFcx7KfO8t+0q2jsJNXJCsyZDWyk1IvQ6kadu9SusRGPgNxVBCqziDO3Glf11FQi5j5zHAlosV/KFwJf3BuubRgjdodo+YU07VKZ0y9XrkTSP0NW0TqWrpzW1MWq8DunTppltdFqJhRsRzwVyH7KGgKFjWruDWKuoLeKY0tv6pG382ZEqruLanQLh0utgMwQsX34XJF/lKpQtB3RHnhkVkn2iG6bmZoieHn9nPIJUH3intGUYT9dL1WBb4ngwV9wYWzqJaHH1QAm+XIo4a/ItfNm2OYYy7ujelGWKo3tZZs+je182uRzdK7+BL2gfep6Ce19DG7CG3+zD7rm3e0p+T9zweH6WRxsez8Ouoo7w7oPnYdvVI30tP89mT3bNeuQv1jse8YEt3T/8O4Y38frh9UcT364PD7ffXMz/xx9Z6Fe3H2j4z78B);lineShape=1;strokeColor=default;" vertex="1" parent="1">
                    <mxGeometry x="269.50335248473675" y="463.0146154430779" width="92.36592718508594" height="94.10868551538984" as="geometry"/>
                </mxCell>
                <mxCell id="54" value="" style="shape=stencil(rZfRbtswDEW/xq+EJFKU9Nx1/1Gg6RIsS4o029q/HzPDiUXHtxiwN8fhsUTykqIGfnjbPr1uhhTezqfj983v3fN5O/CXIaXdYbs57c72NPDjwA8vx9Pm2+n48/A8/n59ulhenn4cf12+8D5yIiR6oVL4GN8whfL3xdfRfr87zO0zhd4+ZooNAIk0dkCqVHgd4EIxdIAwXIEDMXdAzlTjOmAuttwBqhR1HYiFSu9DEWoBAOZ0v0KNpMDpRqH19oUSsI+NYumAligLCJKS1B5gynUdyNXnrQnFBFxQUvWAgKi2MulgBijIW7Mt9VFqpkbgdGsk7AEFUjKguhWUMkp0CBR6tZpbjJcoLkyVEqg4A6Lbk6kFaakSqwdgXG3H2QMNxVWnHc8BICYLe0oeKGgFIV4AqCBMzVp8WDOSK/uuYWFQlIcloFQwsJRrQ1uSRR4sbihx9rcDZOpUa4nj4AFBiTNpVA/kT8TXPFCxvL00MknGBVR8HhII6/0ajaCqL22geqDhohbnRKWKVqiLZmmfQAVhzTJ4oKLuqtOBcz2ob3H4T4SdEbLoAxXIyU6hwB5Q4LadvNIWgUUrUHGZ02lguWu/lEagAtSXfE1XgcOJTrq5Tg7WlkA52OSQHHB9cx+ovgeoxQAAybqMdEDmSYxr85VrrRLxrJE9kKx8QFvi4gEbKlHzNh3l3geGPcPstU9zgr3e7N0cEGHn5kWbjJRQhKqfogOcS7j6hhQooSpokwRu9gHER66in9mDwjcBqP9+BP7aJSB7fwXdMuysjc6+AYmafQsu/mi4tVuPq7I0HYxr9v92S/rU3h5uV7KX3X4/3ujm//srnL0ar3/8+Ac=);lineShape=1;strokeColor=default;" vertex="1" parent="1">
                    <mxGeometry x="266.3105394502063" y="549.6384114351707" width="7.93402137267852" height="9.62306986205108" as="geometry"/>
                </mxCell>
                <mxCell id="55" value="" style="shape=stencil(lVrZchw3DPyafWWRBM9nx/kPV1mOtqJILlnO8fcBs8XRssHtjd7kNXqGxNkA5iSffjx++f5wiv7H2+vL7w9/nb++PZ7kl1OM5+fHh9fzm/51ks8n+fTt5fXht9eXn89fL//+/mVIjr/+ePlzPOHvC64F1+NARf/P5RfvvP/vh18v8k/n52v56HJH+UDkxaWA8pXIJ1cE5CUR+eICnqdmIt/m9aZ8cIndt7tWF/noAnl+D65EkG+NyIsLbZEXVyORTy6XRT7NF+7l83z9lNcfiD57cX3VZ3WJyVfXV3t1J8QfenN11WcI06P2AH0eAJILxIMU0FaPC9WJ3AYE79En1Ik6QYxXpBWQaRSMSwCgu8wu0VxazSzJCfO76sL6BtE3sCPleYDDkdSTSCSop4Jek96q0FDoKyCrb7NY7q6vl87VVeIbrbq2OmsJVK0tz+A6AHnmj1vpSwDQaLw1j/5dg2vEcFWvuAZoVV8iaq2aAfIKaC4Qb9UDQAoehySX1ivmNR4067N4KGXm9ANwHHIPEDScWqaxNwRMw5r4O9FS7uh86iyduIa6Wl/toKWiMUBGS6v/MtdQ74+r4bp3kdghe5cjAjopJqnO+DoAYZbTPSDPVHoAooskCaToqkdAYUfyM0ccAKEEQ7RACwLYkUTtYN6QiGuImDvwvCTBqFVLEHmDJveeEcDsEDXdr87XeUHRqhwMgPlSLFjjFMC0pLwCapwCCgMIMkMFdHaHiEVRyQeztFK1kBGQGUALe0RAI4DQkA1rXfUkkQUbcXfIRnFJEMBcQ9kOFMV3yrUHiFFro66hBKxmBLCYDpq2QEt9Bu2+KE6lX8kzMlNNNGhmJZ5UTGLtMzfvE+sssFfynaUY5NC90+ITkSkNeaZQpABDnljMY9a+orC3APZA9AVQz+9c2Juc3WnoHz3jlTwjSYagDwMThe6ez7oqlU8oz3KdylsHpc8PRj+Ma3uT3TttkjQg7fOp/qM9P9W/WH3S84s5T6X6tPKMDu7O07h+bICRiq/yxh9YABt7/Y+AlA8CrMcxOrvzaFY1thHJn28isn0w4hnn2mUUVpP8JqWzsrrLiHci0mREHpEfk9+VgEzuGzcllXW+gv3TkCcRnzf6Z1RLS7DRp5DzVEODOuV+zfCsNjn2LY4SCgJYilYWVDoCIivaYpJKpUloMLmAgMy5Ioy+FBDZHeqMkSu+S7miMrOCAFYIgu1sCp2fqmNj4iouMEA0as2Us4++QxDAJl+jszGtUCSX1mBACs5HNKM7A4Kc6BR49H8BAayAa4eJlDRNDnCrh0XXEFqStUsupq1mk/jRh5vGnfVOYkbxPdK51JglRASwpJ3idObr8QabVmRjuECdL9mIC9QO2btkhkAs0WezIGid+lLOeCQFsKyRKyaBpu7I5lIdi1WrtLiVgK7RCr10EWxJG59WlGzGfYkOdktDyjk2W+RINWDT2w5T3prTCsxpK/Ul/W9Y7egj6C7LY+bTQ2aipSbY1w01sDdkXEOURMuuOgKsv9T29A0dvVXdkdnBLtg0QhiT0SwE0+zUqWuMagArtkQtPYZK65FEyQ97QzPLmjTfuQd0HGSN/RGJ6X4sfw5Aoh3/oL+w5/S05VcADGmUfTAmMO6wxoMSIpaMxw7MrApZyRqTNMitlF+p3SAtVVf5ygx8tfBNZMKqnmgX+V4v3+UZVdJQACMrJWXbr44bC015bB9XManyYjh28RHk2Zi8mV22p/Ydy7gG8ozo7b5VYEVk9y3EHfmG57knj982sN16C0hU/XSoW/JgX08XtM0Mfj3d3TezB/E0a23lmf9szsO+tdjdl8XLTp+Mxu/sRcfcG3+g38Z89Nubu/L6x/uHPt/OT0+X74Su/x8/DNKfLh8Vyed/AQ==);lineShape=1;strokeColor=default;" vertex="1" parent="1">
                    <mxGeometry x="266.98596837190564" y="462.53998349550614" width="143.7670862140895" height="116.22037298162705" as="geometry"/>
                </mxCell>
                <mxCell id="56" value="" style="shape=stencil(lVfLctswDPwaXTEkQfBxTtP/yEyc2lPXzjju6+8LVSNZBK315CaTWJMAFgtw4KeP/cv7bgju43o5f9/9Prxe9wN/GUI4nPa7y+GqXwM/D/z0dr7svl3OP0+v0+/3l9Fy/Ppx/jX+w58JVzNxGVHB/Z1WEpX8f+HrZH88nFb2pVCIjb135N02ICdyqQVE4rANSIEqN4DgKAFArORcC8hUyzaAhXJtAOOKbANCpOwbQNRLgit5oSgtoFIAUdLd9kYSqVSQBpLW5eSoAvsQ5u0FoFFjEKNMruVFjhQBMUTI5QZQHJUIiOHnmC8AgUGtut06XZlKAoBkmVSVeiBKWgw5tAAhD5yuZd5eAIk88qErHz3TA+rptvVBzwRhVUBo660u9bEVJfYWgOrtFpMVoKI8MNXPAQIV7q6EnPZUSuc08sHP5bgOK9CM6mZZXCcOccl1iVNqIKc9sUmcYM0IMxFW9I4e5sGbE3iO232AlgtbQEJsFZJgARmXaPLWB5iHTLFaAFJKzavrwpoxwBaQtkQU1mKVTy9ZEPlyF6VCGYjxGKVWKpXe8UEeOhF4lOnWB+8clg3uKqhSRkd8FqAdik2qPQRIoGBaUIItiNnWqPYsRFdf7CCQBZZcsrqkTqFMOwotM3QaQlRydvSRNDeY+x7bFiqOIrD33mp9jCTAYb2RtADWekLDmEp3eyXGc0MUq2I63KDpTeqsKAu3Bc4+WYelNsuLhtwfxrrRh+eWulVsZtpzMGljH0jGHja3dMcelXK2Q4nDra3YxqNJR5VfLOs8HmGq1XgPGTFqm2EEnBZW0nZLWEQOV+uAyiWS32rlV3Dr714wgtW6a1GJIvr/Tz7yHtvrx+1F+XY4HqcH6XrfvkB1aXq98vM/);lineShape=1;strokeColor=default;" vertex="1" parent="1">
                    <mxGeometry x="260.474044324367" y="573.4528127193689" width="7.455686692750359" height="8.694661284386841" as="geometry"/>
                </mxCell>
                <mxCell id="57" value="" style="shape=stencil(lZbbbtswDIafxrcEJep43XXvUaDpYixLijQ7vf3oGXIj2v6L3jkSv/AokoM8vB2fXg+D57fb9fL98Ht8vh0H+TJ4P56Ph+t4069BHgd5eLlcD9+ul5/n5/n369MkOX39uPya/uHPzEWKMkGe/84HTFL/H3ydxU/j+U7cqXzq5COx7Mv71K6bvAuU3D4gmRJ3gC+U0z4QPUnsgJCo5n0gFYq9hhQp8D5QAknogOIo+X2gVnJ9kCrWoEDuNdRELoA0MBP3TtTcTvZUVLFAAZlWIPoe0ESAzOl1MRoqSQFApuotUFBcU7N4Kab3OGwTkUpcqUBeB6rOAhFpCKtcaxyQ10KpWICRSWKfqAbOo0QIZRPXRAIeqfrgDaDPPMKw2urTuGGgJgtE5HTe0BBx9bG3QEbFVFaZjuQ+eBDFAjDTtcXkLg/wBSnQ13dduuEekAxQKKA81FZqd+XtkA+FfLBARiblDQC146nTrUyqoOFr1D1bICEgtDZ07zTKw2eBrI2uN6loLaEZJO16mUHaXAGgMy33JkVugd6eo86Wt3g4UnTw575aXWlTaXsGOSr9m3bcloNtgGpfGdoUQOk5m+ZlVdkU57ZWLGsA7Ehs/117ILB9NW6lTcc98d4Y34K7Z0w04gzKje0EcbC9ayD7B8aw1FR3MOKC6sbOZPUdZFVn00octJNgGxyTA+Kf3GY/FNeP98X5ZTyd5r37/t4u2no0L+ny+A8=);lineShape=1;strokeColor=default;" vertex="1" parent="1">
                    <mxGeometry x="212.09905825112617" y="639.6689692047433" width="7.548441151685503" height="8.902173538493635" as="geometry"/>
                </mxCell>
                <mxCell id="58" value="" style="shape=stencil(lVbZctswDPwavWJ4E3xO0//ITJxaU9fOOO7194WqMhYgaTt5k+kFCWAXxxAf3o5Pr4chuLfb9fL18HN8vh2H+GkIYTwfD9fxJl9DfBziw8vlevhyvXw/P8+/X58m5PT17fJjuuHXbFcS1TZZBfd7PvGU3d+DzzP+NJ4X+JooB4VvVNM+nuW6pO8v5IBBC+SLMgiFEu8beOfIOWWRIhX0RO0XdoNcyaMgane5G5RGARiUSrUqg9rI5X2DlIh11FyoAoNKIWoahIewj8+UDA33tG0aSAqLfaCABwI5raPGEO+INQfCivcIb2TRMqRAojM6jRSgPylrvKcACPCU9P3cKEeUH9aEMVMoQBG2zkSEGfhTKMYVHvDL5Ir15x+D20XTo1vEGyoqS8pGEI4aIMB78oYxyRl6wZPTRdYSNRCyX3NciIHmGkXjEVMEOarEuhFJzSSAL7atCL6BVpe64hd4hjWZ2eIdomDVVGrvAjs1E40/mRjEu2rUUpOIMLeK1/euseO/zafrKt/Jj+GXcc8Sb/X9UmOo6X4Un7wtyhqhQfFdv++DSboiUmhZjT45ASni2BW8GK5oblQZrprkGHur3I5BHNCqEx5R3YvHZjR5GVZAFjnboH2gBOo+Jyo6rdI6GGRJDOz0681sGy/KMERD2uT+oJWa4U6UV+tE7GveXoZYK/W9NLbxMqs1yb6P5208U9atWloHoLjItLd4JLqpDpzFo/tjf/6OzyCfH92S/4+Xj/tK/jKeTvNGv/zfrvByNK//8fEP);lineShape=1;strokeColor=default;" vertex="1" parent="1">
                    <mxGeometry x="220.8738962061118" y="649.0970625106614" width="5.618603845119499" height="4.997180314097434" as="geometry"/>
                </mxCell>
                <mxCell id="59" value="" style="shape=stencil(lVjLctswDPwaXzEEn+A5Tf8jM3EaT9M446Svv++qHk1E0N42N1nGiiCwWK60Szevj3cv+10Mr2+n49f9z8P92+MufdrFeHh+3J8Ob7japdtdunk4nvZfTsfvz/fn3y93S+Ry9e34Y3nCrzOuBom6oGL4fb7Tu6T8987nM+Dp8LwB5CKtjABdH3ERkFRCHADNJPXrAG1S0gCoURpZIft45KjxenyQEIb4FCXSeLUhPkYJjeYzPl+TNFJS/N3rWCGaf6zSx4SShELyUcltiA/Sw/X4UiVnFx9IfAOHxvzR8nQ93lC+PjZsrfDFeBAsjZQzMUKg3iSPjFO0hDRMw0QJ7RTRTXQsKXpgZM/YQxtzQpMr2bTpxNIgRlKq1dMuJYkEUII0R6O8EvEy75LksQ+p0kZgTjR7AGPeOzE3gEZSQptsSqmQFQDQaQVlw2nSRnVJharRAjAPYH1ASjH7PhjrQ1jlZwMoTDDUKxgAkZAPjfOd5iMKarQJwDQVI9+nTWdGjTJRI0tjgOqPBfQhMLaCas0DaFmxwtRpOkBlEu66Sts1QJjoXfmIWvMAYyvEaQ8YUUJvcClNA2SsSsFL5bIHPqJJPYAOEI4D9X1gA7SM6ATIZA9IKUxs7czD9FW2NoDKqzSLMaUGDlH1gMjm4aOADJs2HlnwSWxEYdM8+QJV74aqO2dlUplzmKxV5OrdYU1GEcCERJJSn+YBreykD8sKo5lR7IrvwQmZhpXwl6vUvBOo1HBXm0SDyliZ7FJc/d9lXuR1Gt+fz84GvAC4syH/ywTkkajGx1/Xc2Bj95QMJ94vxnwWn8L8rSQ3miqddBgJOT3KmZoSFMTGDlRdT4rLJTVPa5CE9axEfxhap6pd2/Re2KjXA6A6gFF5AcCCBxRSVgBa9gAm8wA4F4N3W8ZUWGhnSgDI3HPHCcBMSS2rgm4AxlKCK6oewKhRk3/Z27zdXJPtMuXUCZlAzjpvgq0QPL8BYBbgw18l/gOAi/ePIA+Hp6fzN5Tt//6jCW6dP7ik2z8=);lineShape=1;strokeColor=default;" vertex="1" parent="1">
                    <mxGeometry x="235.3325321691824" y="660.3096332438284" width="6.5790365313692485" height="19.435653125264512" as="geometry"/>
                </mxCell>
                <mxCell id="60" value="" style="shape=stencil(lVjLctswDPwaXTEkwOc5Tf8jM3FqT10747ivvy9UDWURstaTmyQvSBBYAEsP8vSxf3nfDew+rpfz993vw+t1P8iXgflw2u8uh6s+DfI8yNPb+bL7djn/PL1O7+8vI3J8+nH+Na7wZ7ILFOJoxO7v9MEL1fz/y9cJfzycFvhCucezJy/beF2u1M5AHEVkUCm4ziAIOb9twELBdwYxE4MdOFJKnUH2JGiHRKl3qQRyARhkiqEzqEIRRFV3yKU3yOQLNJDepcpUHd6hP3RhyhUa1D5xqVKKwKAQ9y7FQALyIJ5inzipMA+SLTXUSQdcCpGiYXek8XXLIMbmwEyN5uNdfIpUejxTAQ7lRLHPs6MAQlQLeTZ4B7Ks+CwWD5JcK3E2eAHxUXyqBp8ArxVf+0LQbgHi6d18vptBBHWgGxTTj2BlKj7ahAWMd2LwGeFLW+6GR2WpZV7Y4lECcuPvwh8UHy17i0eEVrzYeHrkTyLfE8hjQqTW1m54RvFRfyzhMiiwumqkSmgUn2z7qMPnzVS9wT8oyLgqSMw3b9dHs2zksy3giNcvNj4VxPNuQQbcISobfMEdKNmCedCBzJRhOJU0AckSuiCClnXBV9yhP4XP2Z5XiIH/KdsCjk3u3J9g6k9PCGUIiH8oq3zNLeO+waz35gNncsBAYhtxizFf0JjnRvmFkEBNS4WEW0sVUPUqQWsfJBVDiKVqkPooqaATpACTFRKLStqSsUnsFgUZsGW2qlJGMtbb4a26F4VplOI9V1VZozCpugq9yAwBcqO25jNTw8MzBytvxnEGqtnZaTl6CE48N+cF3sH1bXMMsBs5S1TFIz3qVixSToDu4iwlFB9Qwlb+CPTH24uQ4uFFiLzxh+G4YdvsRjyIv3qbVv6gOm7ibYFHN46w8l9aBDbwn7tNP8brw+3q/nY4Hqeb//J3e9XXT9PfBPL8Dw==);lineShape=1;strokeColor=default;" vertex="1" parent="1">
                    <mxGeometry x="246.37677124751553" y="658.976685616838" width="12.421686534759091" height="16.328818232983675" as="geometry"/>
                </mxCell>
                <mxCell id="61" value="" style="shape=stencil(lVfLctswDPwaXTEgCb7OefxHZuLUmrp2xnHS9u8LVUPZhK1NcpNlLglwsQtoCHdv26fXzeD57XQ8/Nz8Hp9P2yHcD96P++3mOJ70aQgPQ7h7ORw3P46H9/3z/Pv1aVo5Pf06fEw7/JlxvlIsE8rz3/lNdOTj/zePM2A37i8ArlBOHUAKcQYAJnH9CUJcASCR60NKiQqvA3xu+zVAjhRASBIoxg5QAgUQUnKUpQfoCWEdkBPVPml9k0FIul/pc9AzWdYBlSmZpCk7uL70OWsGCax3JD0LgaZfq+s9Rd+tdxQBaTXYeBhSUDVcMesZ7a814+3+Bawv5JKJX9D6Sp7N/TgUf6US7P0Dfh0v+Z0JTjig1BNWqaKACtV+f+eJEcPZKt+pjlAJpVZhC0BIgGqq2JpQQASq0SIStiFVpBpPLtqkE0pa3bCnTf0sY11m4y1YB2ytRe0P7e+aDM91VxDNmnGfgLKMfCI0mZx1A8tObF0z9q10rWOHKM72fj7xxWKN1OMSUtnkbr2WHOpO17pMTUhfB3zCmDf9b/GO271Dna1vNqXCmtPWYr2asZsKWzfVe06AhqnKehqmBgTMItk5JJeW1c3115fKsP85a9cSm7Jvs9D6+yIzdRagg0kmRpfYToNrdbkAIiVwQ7pfNiEl8ggQ2sixAHIrrdsAucpBWQbDoEbse3EKQ9YUYGiWxZHXAMmcoNMjSjralqBEo5agSRdjALjRKsCZEyq0MOXBWHBkOD2GxaIvhnI0MgduA/IFQNDI/N2x/wsAfTh/ZbyMu938kXL5v/0q0VfzF014+Ac=);lineShape=1;strokeColor=default;" vertex="1" parent="1">
                    <mxGeometry x="261.8867292130817" y="667.2560637085392" width="6.288700984178571" height="4.0130878750277414" as="geometry"/>
                </mxCell>
                <mxCell id="62" value="" style="shape=stencil(lZfbbtswDIafxreERB0oXXfdexRougTLmiJNd3j70TPkWLT9D71zHH62Sf48aAgP78ent8PA7v12vXw//Do9345D+DIwn16Ph+vppldDeBzCw8vlevh2vXy8Pk+/355Gy/Hqx+Xn+ITfE5cohBFi92e64SnHfze+Tubn0+vCvJLE3pyJ3b69j1RSB3AmV/cBdlRKB8RA3gNAqHIHZEci+0CI5PtPkkwhAaBS7Z0u0sKwCcREnDugRnLAh+SIe6drooSA1L54Bpgk7APZ2yiVRBEA4siZKGkeGADFAknv5H2gZJI+SprpCACNibgOCI5CAUAm9r34apPjHmDEp0AC8q5CmS0QkA+FglggArXWSi5aQEABKZBkFSWgJQXqKqwV+OCdasMQ2jWwE6YLBMaZm4MyAwFWkMa1egtE9IZitaGAoMxJE+cCKKAgVEzCFoC9de6MC4ARkKz6NKwZOZ2aOBeAQ/pe9RnNNOM3pL6CVEwJyVWdZgvAT8otiMsaRW+QjZKD4iut0S1rFIuvBAtkpCV93spp1FzHAloBqN9v1yhq+GMb6J1QbXjULOuG+gpuNJ8E1rtAgvoubPWtu4BHUy62Apun3FxT23M0td1inqMFFnWS1hnnSS2wgmK1FbTI5Tbh7X6iNVLRBpTs5C06U9COtVr7ROAbWJtvD2SGJeR1VPfqi5EyFLhtlroICsicLqJ9HnQ1RSXn2l47ixWWtFu1sTa398z7p2t4QIpVxWbtJgEacjb6vg27HXMTGgcj6Vsm7+YBuKoTJhhzeACgXK05iEywA8rBpTNQtU9noONIyT4ddYfUdpR73B1I0yfPXv8114v7Me/ldD5Pp8Tl//ZYqLemI2V4/As=);lineShape=1;strokeColor=default;" vertex="1" parent="1">
                    <mxGeometry x="271.1364305014713" y="665.8495711037189" width="10.562680164765057" height="11.071537553762568" as="geometry"/>
                </mxCell>
                <mxCell id="63" value="" style="shape=stencil(lZbLctswDEW/RlsMSJAEsU7T/8hMnNpT1844Th9/X6qqJiboXCc7icIRXpcEJ7l72T48b6bIL+fT8fvm1+7xvJ3kyxTj7rDdnHbn9jTJ/SR3T8fT5tvp+Hp4XN6fH2bL+enH8ef8h98LlzOZzVTkP8tKJCn/Fr4u9vvd4dI+UQ6dfSgkCgChJB0gvK5cB4xC6oAcqAJAE0kfkuKQAjMxd4QpaX2fMKOce6DCJKxQ0R4w4gSAQKV6IAMPNVNgD1TQOVUqPXBRh6tEMa+N5sJATEWIswdKBr1WytEDEYTU1GTFN6JEAERSBygZaHUTOCcPCNKrDq0uq8/3qhSLB/4r+HrnmKJ4AImptbq6PmSYdBOTDB4CKGuTax2STiDp9rmyBwwB5uXa+pDBrp616UKqFFEOrUrVAxXtURlOASNBZVVKg7wV5FCZwuABNU4jpXGLAg8lU0xDSOjAb8dxGZJGB34i46GseItW80CwTwLo1Ihl/XwxITLwYKsOLkaQAWVEyn2Nbsy4QKlX3o0hOswrPKSZqpvRpCDbdh5584gGiT8gGc7OEInN2SfQrFCJ1dkHVPu0DoA3ezTVJKyl/qC9rjPvY/Ek8frH+aZKln09sfq1ryduV7vhBSc2/P/P3ghv2reHt+vn026/X26vl9/9dbUtLVdduf8L);lineShape=1;strokeColor=default;" vertex="1" parent="1">
                    <mxGeometry x="290.6574637513296" y="664.421517151297" width="1.0534215562318292" height="12.382813864671789" as="geometry"/>
                </mxCell>
                <mxCell id="64" value="" style="shape=stencil(lZbdUttADIWfxrdnpNX+XlN4D2YIjYc0YUKg5e3R1mOIlkSd3vnv88pHR8c7yc3L9v55MwV6OR0PT5vf88NpO8mPKYR5v90c55MeTXI7yc3j4bj5eTy87h+W8+f7/mQ/+nV462/4s3CNUEKnAr0vV2JCan+v3C3Abt6fAxmlGCAJWnWAhsoGyIKaXSCJAUoEeyUltGyAqis4QG2IFmiMFh1AVbIltYLE14FCyFYlJgLRdSITJNolGtiRKRGq7ZzqQE4jooBtI2oFO4BUkAVK84EMsrrmBhIHKGMjUkV1VIphXCGqW5zO6W1pFggITklaQK4G0CKzs0KuaMkCGSE53lARrZlU6OB8dG+TXUFbGfyBoGFG6V8zykPjCLFcB87c/OkNWoPh8hI6MBbQofJa3UdysGtbX3FZJh36YUg1GJySeqzYkr6i53KrBeXbjFYnBjQa6wBofHozmhCHoVZZHTN1QP4HkDima09Dx0whrm7+BBKyE0yc1rQ+i43ofHRBtW4tDHHaEMYwzrym7cXn1ar2AxKvKXLteWuLSODg1ZNsYgRfUc0TWz831xQcR4GYkZweBxmBBHEmRz0x/Bm0AY6garpBofHfpgdfO47HebdbNizn98cdil5adjdy+wE=);lineShape=1;strokeColor=default;" vertex="1" parent="1">
                    <mxGeometry x="289.9348356954109" y="658.454981223077" width="1.1974394001133857" height="1.2011127436211868" as="geometry"/>
                </mxCell>
                <mxCell id="65" value="" style="shape=stencil(lVjbctpADP0aXjW7q70+p+l/ZCakMKWQIaSXv69c1+CV7EPyBkaH1eVIOusNP7ztnl63m+DeLufT9+2v/fNlt+EvmxD2x932vL/Ipw0/bvjh5XTefjuf3o/P4/fXp8Fy+PTj9HP4h98jrjWqaUAF92d84imGfw++jvaH/XFuz5R6+0Jc1u1rocr9/yeKDQCYOHSAkKghgCPuPeJCKa4DSiNXO0BslEDMJVPMHSAHcugEptCfIE+Y1wE5U+mzJGlweR2QCuXepeYo13VArBR9D0jkQVoliYoYrZJ36wAhQi49oFEBLnlhTu+Sd44cOKJSiNolRNYwOTyP2a/bX0//YFKlVXr7mqiiqhErez8xa/n/mXIfcCnUQAAhUlPdKd0GiMemBsJUVLTkdPOUQAUMgOwpew1wwKVq2rN4CgAgRYpsAMCl5jVTy52hFxYAiBjNDLEhaFC4hbEaiO+cYAAlwRiKcomnRK9lqUQNYDD1pA7JcCmhdm7kswGAGOwyEUBE2yfrMXkbzcuANJF5lla4fRIFU4eMYkgm6ADZKgCdVg+HgAQdLFtRHcpU1xkALvVK2XYcoIZU+n8SPwgQ8ukNKi6BUSn0ZhN0wg3kkwZUUOmhRU1PB9RxrGXDQA00yIRqlnwoBrPgBnqjLDlqpqfRBpLCZTM1kLj6NCCLA8qlCMmXJOtNA1CLRkdF1UHWNJINoolVxxWolUQ4eFW4NrFrbbH7PktV9gPaQFT7JEmTwyVKVWmxq0pedsgZQIQO+ai1TxOVDE4QaaLFW4FV4DD9PDsBTdYoxPA6BlQ20TJqnUiWHDghGXJL2TI4QXS9M/3mQUfnNv18vWrIsAeFlqGlbg5ymUErcRgp5roUwXYYmqUHiI5FSmO4kCldn8ihHZonbXQNGmpQGXuub2g3NeyavRoxolTQlOSJ+jd7KHxYi4brPFi2j1qVYNrJrUVJaHxNkj5JTduj/Mh9mbU9yn/Vu9ZRQMPLKHoHGSf2Jl64N0Vd6HqhTT67Zt5eeqBx/emXJHft5cPtjczL/nAYX+jMf9dvcOTR+PaHH/8C);lineShape=1;strokeColor=default;" vertex="1" parent="1">
                    <mxGeometry x="302.1869255361148" y="655.3980802027514" width="6.65386154247688" height="24.113334497461825" as="geometry"/>
                </mxCell>
                <mxCell id="66" value="" style="shape=stencil(rVjZbhsxDPwavxIidT+n7X8EiNMYTePASa+/L1VHmxW1O0WBvjkbjiQOr5EO/ubl4fb5eBD38no5fzn+ON29Phz8h4PI6enheDm96q+D/3jwN/fny/Hz5fzt6e769/Nts2y/vp6/txV+XnHRU6wNJe7X9Yt+cH8+fLraP56eVvaByctgXynVfXsvFNNgz5k47QOEKeUB0HYAABZybgCESJL3AZlqHOwTk4vIXsb1c6AA1q9UwmBfAiVAqRISxw2qo+oBp46ciYGeiEHQErEBJOhC0qhFC/DgSDlSGaNWPRXZBygnZcyLUimAKCgnby4uAE1FQGsVqmMcsqNUAEDTwA+AWHtxbPugmTHSGgoxOFIRSqMPvhKj1EuUx9TwTAUB2NIqyxLbAKV1dForNoMdkibzSKtmlwe0Jk9pzKWgHQBkqyafZAt423MboHEVC6hgh1io1AkAWIoa6TQdCe0Q+3orgANdLAbblRqtoIAUEKe2h2paAZYlXQIETn2QMgI8ZeSDNhWxAAcKKC5hWgDSk2UbUHsnXQFgI5vGlQIi7nylWEAFTms98OQ03CFMTgfyaIfYB+Z6wKF6mHprGwCo4oLtfAooIHDKUp7qISAAE08VhxqZRjpMTaACpzWXcrGADEaWZqtnC0C6odUDW5bQfGglapyOuIAUMJVowUey2id0bfB/ANpb/RhpnQ9Ia2ikZcylNoFQaoReLgtAeuPZHllCfmyVwrBV5mJrWpQGQGvxJOMOKrlQm2naxbBUujbY1hphyiVcQLX0Cl6JE8QSO2dDreKA0Zmy3aIs4n3PazPkVHM5kBsaCCM22p5IOyxaZAFU2I01m80IWvGwfd/QGp7OhMYis9VkTWkCgHQhvNAa+41i036OW4ACy1mOtGbRAIo9RqsWgEQoh6l8ChwnSqkbAawjDJzI6+1hPFKC+q2NgjFmDt6wVJanauwFFFuotiU5rGOc7ds45yJTKNYejSptuc7Yo7LRS71YfgJa31tJ4vow3ZtT5i7GvZ3tSs9q7NFNTO1NSgvMn7gI2Xd79GSg9jzae5jQ//pI8nd7/fH+InN/eny8Puis/29fcPTT9fXHf/wN);lineShape=1;strokeColor=default;" vertex="1" parent="1">
                    <mxGeometry x="314.67572127051665" y="666.8261891674156" width="6.736791007081787" height="13.140878013070093" as="geometry"/>
                </mxCell>
                <mxCell id="67" value="" style="shape=stencil(lVfJchtBCP0aXSkaej07zn+4ynKkimO5ZDnL34eJ0pKa8bwp32bhQQOPpTd697Z7eN1uhN9Ox8P37a/942m30S8bkf3Lbnvcn+xpo/cbvXs6HLffjof3l8fz++vDJDk9/Tj8nDT8PuOEcppAwn/OH5ha/vfh61n8ef9yI54ph0G8UZVl8UalDeJmr5Zl+SAUZABoI2YAUIo6AFKmCBwwQCsDoFgI0JEihdGHmkgxwMfIVAQAKKR5tKCkugywHOXxSCVQAWmQSmW0kBoJiFJkKnEARAO0ZYBFncfERekqPgRco34BMCVwpJqpBg+oIEqtUhupHS2sgEutkYoHxAoBOXoAorcBqnM6UsRHamOmYyIGYZ0A1QMQNaYjjdSImTRhp8UDKo7S/6hfAIUEWbDEqQdEnOkUPUABWw0QqgcEZKFQbd7pjCwUX6IGCCgPxXcNSxxqZBPAJS72brvog3hAQImrxM4HpYLYWn0znioO58EfSWGbMS4Je8BKAXlq6Go9sI+SgO49VdwsD2gmBuY+0m5Tjb1ujhtGJlyjZQZY8To6QFmzwMkDVlLt+/1qUX8OYAOizHslcNpGkG99sSd/acj5Gs29VX08RkOfUJe5a/wGJadMcXQ6Cyw5UQojl4p2siztDuyWjdRVfEzX6lcyW2ci2n/Uj6Abxi9tfTIzkVAJ2bpTvBMJrVih/77Z+hosUmpj30iFGNF1NhUZhtWqZdQvtjYCZkRfoBa0Cjzm2S7T19gF8TAeR/t0WRBndeIMKDFreEIRNJcZRQNc9NjPhAB3WyuxMTLcybQgXtiJK8hT8JFhOPZDV3YVh5Xi13KGpBRirx2NMukd/CqeoPZPXR1Xxe3hekt92j8/ny+5t//9rdY+nW/Eev8X);lineShape=1;strokeColor=default;" vertex="1" parent="1">
                    <mxGeometry x="323.50645771304437" y="667.2687334211938" width="20.402898412173183" height="11.7481405429755" as="geometry"/>
                </mxCell>
                <mxCell id="68" value="" style="shape=stencil(7VvJch03DPwaXVncl7Pj/IerLEeqKJJLlrP8fYCoOHpsvGlatxx8s5/YMwQBAo1lbtKHb3efvt7eRP/t5fnp99u/7j+/3N2kX25ivH+8u32+f5F/3aSPN+nDl6fn29+en74/fn79/9dPulL/9cfTn/qEv19x3vmooOj/ef1hNJfKf7/8+rr+4f5xXR/W9dHlSNf7ZX1vzqf3rPduBLp+3X9LbvD95GV9rfMJZ+vLsr50F/t71gfXPFsfVnlz2cgb1/3n4EJl6+u6PjUXyfODS2ldn90Y5+tF+wPXJ3I+2QV4fnKVrK8uwvOj62Q/A+0nBVfI+YfofF0A8ohIXhCKS6vFRTnRRgDdVQBk14jIooO22pCcsmc6yK6sgDBcJ0YhpzraCmiuk1ugx7qeUqguEzNKft7CA1BcZ4DoSkZAITKInXnzhkw8VyrTMC8BbEvVlYaARPQgV8vKMIizS92lgHqITOg+9Xqh6cJkEGMG40uuEU0LIK8XVHQfmAwCWLckB90yB4DLkytNLpDKAD7V05gjAL8qrjQ3yI2TYx0QFTL1wqqHFdDEDfM39FXTrc5jOAWsp9SGS+xYu2sDAYPbUlsVJ6G2bN6w2lIPM5qeAWpDAFWcAAICWHQQAHg+ATR2RbvL3QCY1+hzxxeAwgHJCB250BBQRA+N3YeOMVEAmzfEdUtiGpWbd1xNo/XdBUrrluphXaeKW99Q/bzlP3iBhFgV7jX8uqWcKJNRv2So0sZV9lVxEsSYtWYRcb3TkZNJAVQAZCq0kEGg50ImKtGDAApEoDEZ43VARAIt/KYRWxIAeA0BZCZDQr6kDIq4ypzRzeiWmAzVUAexLmJ8uSHLDUfEuA4YqIdw/HIVIBGtWgBRXIlGhkFJYknoNQQQiHmXPOnUJYAIXQreaQWQYy11pkaXACZ0M6xSAMSWivzZHCuL0+qF7CkxQMD4IIBG+FKNM78+rqiEXaKHmuYhXtxp5owF0I3XCMQ0hOxk45c8UVw9csLLrI+YRhXTWFmlOB7mBOpBnA/A4HlixRgn1sUonADgTotmmBMQQAOS2LimG9YCmp951xkgQ5wO1Lx1A4a3FralPosvF6fEYlw15ER9ITtWw1sljQrEe9eBQsdC3b0cYoQ8rtEMRQ8RQhbnSwIYwDVo1G0RrZtbUkvOgwQ0ODRzoWX/TGATED3l6U1S847rmQYa+gvP92+8sKc1QC35VVxPzrNH5IZ+JoDX12cMthJ92X7qdG5v+mIOuHdDPWnNrQ+8xs0lEgZHMPuREyMKG+aAQqYJwMhYRlPSxgAFTVrvANuSOHiIan0+4jqgolFLzGHkWQvZ4Lo8rbuNhnxefB3zpsPkVcKZWN1NAHV1FBJzMgcME0LoKY1paQegUV8nAHiDWGMll0cBq3EPT/UQvKnpC4Ldnyuv4GWAMdBhiMUnZq4DPfzbFTkDQMFnJBp0BNAaAjaKADIsAEbox8DSvsjAShkCKAMBmy0BoR8851bAakyiaVbaU0BDAKPbY5gK0SHVKaAhgGUx46DvB6Bz5zrQuQqgcxkg3MqWNpcayLAAMhd6dDxWFhGv31GWQ19DBFp/102BruPkBT8otgBYMUMP1tw5RhwUYO7c7pJGBLCMVc3PeKaNcUDJRxus/JTeCRDrXI+1HUXRMwD4DSHIu7i4mp+kJcz8JPIOk5ZQ9tCwbCXpIav7joaJT06z0XFGN/L6htS43yhI4lLgMSij0LFOxnIdkNBvxEh5vcYDoH2dvyFgp0V5ImPexrxDoKek1Hg9pc5TgYodsjID8Sm1h+YSNVWbOmSa+tjUJNP929SH3wSbWmV6njZ1y7SMrqkhrmcEVFPPAus3qW1cHWShHR9JnYH1VMrRZT3MD3Ra1BdPBecZEp1PEH5dTAGQvaEOPCHJ3piHF0CEEYhGnZ0tqWTeXBEA1CNKp66omo5SrbStrHUkSDMSHbOozcSQyguADXu4AmBET3YMlt02Vc+K+aFohnUydFJo3ZKEtciELpM4XuiBdVirqaAX3jAVQDBNLmp85v5rWOOAYMIam8uoaUaMy8SeyWCqYeIzdhV0aHLlObV0WqOH+nbiMpgugABo+8a4eQUQoW0nYwcwvRIFEKFtN0YBrH1j+j0KYN0Y01GKieYxtmclAFYbtl0xBbyr7yYAdkVtZ08BrDtpeoeRB5RsbpwaH5MhYZFIR3bYGyIyTyUNrOlrgqiyJNbDDUgkBcA6GQLAIblKS6DZ8KrIC44CKODI+FyGbb6nQqlhMiUf+YUVAuTPZRU6lzlScAbA+iGv4CQzhieujdHJK4NNg473/hw7moCfY0cWAO7+fzF2BDS08BmfjjOgwvc3Y3gF8pPMxyHNtK+EehbY1bwhI+MVTb2iwPkiHSCwTkA8H2tTXAF42hNQoQ11YB1K1TREoI0ja+hbdcyC3Qc7vDtoBLoyHjy4DHYAedBGiI44m4EaOk/ssUKkw1lE6Ghm3rRTzAbBGxZxdV5sM2pu2AzTQwwYHyL/4CJYW+LZrg5lr4AUaJUrRDyltKkFYu1QJ5xZ7opeKfFvag62dqzvlFJGvAs6uki/6QCOq1yI7N9j+y3zeq8pmWT+cYA35YndNzIg7/YbHBjD337jA5nS9hsicC3bb5Tgzmy/gcKm2O4bK2zT7b7hwi5do1HT6OutI3CyHuxt8ElDj4O3b33Ek/XJPJ8VJT0ynYvm1QkAeMgeEN65I0jAthJDiWR7ojB5ttWY/QqQW8S7vxrcrJd/vH2i+OX+4eH1C8fLv+MnjfLT6+eQ6eO/);lineShape=1;strokeColor=default;" vertex="1" parent="1">
                    <mxGeometry x="256.79041248050896" y="402.07921044073214" width="122.04007545614894" height="12.489763178533567" as="geometry"/>
                </mxCell>
            </root>
        </mxGraphModel>
    </diagram>
</mxfile>